<svg xmlns="http://www.w3.org/2000/svg" width="129" height="41" viewBox="0 0 129 41">
    <g fill="#FFF" fill-rule="evenodd">
        <path d="M63.069 13.85V9.5H49.53V32H63.07v-4.35H54.48v-4.725h7.35v-4.35h-7.35V13.85h8.588zm11.587 2.85c-1.725 0-3.225.825-4.275 2.138V17h-4.8v15h4.8v-8.7c0-1.35 1.125-2.362 2.513-2.362 1.387 0 2.362 1.012 2.362 2.362V32h4.763v-9.487c0-3.3-2.4-5.813-5.363-5.813zm8.25 15.3h4.8V6.313h-4.8V32zM93.37 14.488c1.425 0 2.625-1.2 2.625-2.625 0-1.463-1.2-2.625-2.625-2.625a2.633 2.633 0 0 0-2.625 2.625c0 1.425 1.2 2.625 2.625 2.625zM90.969 32h4.762V17H90.97v15zm12.9.3c-2.663 0-5.438-1.275-6.338-3.6l3.525-1.762c.675 1.275 1.725 1.575 2.513 1.575.787 0 1.312-.338 1.312-.938 0-.525-.45-.9-1.8-1.425-1.725-.637-4.725-1.65-4.725-4.65 0-2.55 2.175-4.8 5.588-4.8 2.1 0 3.937.863 5.062 1.988l-2.4 2.7c-.45-.563-1.35-1.088-2.325-1.088-.825 0-1.2.375-1.2.863 0 .562.525.787 1.613 1.237 2.137.825 4.612 2.025 4.612 5.025 0 2.813-2.062 4.875-5.437 4.875zm16.162-11.587h-3.562v5.362c0 1.238.712 2.025 1.725 2.025h1.8v3.713c-.375.262-1.388.487-2.4.487-3.188 0-5.888-2.475-5.888-5.662v-5.925h-2.512V17h2.512v-5.775h4.763V17h3.562v3.713zm5.775 11.587c1.5 0 2.775-1.237 2.775-2.737s-1.275-2.738-2.775-2.738c-1.462 0-2.7 1.238-2.7 2.738s1.238 2.737 2.7 2.737z"/>
        <path fill-rule="nonzero" stroke="#FFF" stroke-width="2" d="M18.102 1.143a.836.836 0 0 0-.885-.03l-15.8 9.12a.836.836 0 0 0-.417.724v18.244c0 .298.16.574.418.723l15.799 9.122c.258.15.577.15.835 0l15.8-9.122a.836.836 0 0 0 .417-.723V11.885a.836.836 0 0 0-.732-.829.845.845 0 0 0-.79.032l-15.36 8.868-4.258-2.458a.743.743 0 0 0-1.008.27.736.736 0 0 0 .27 1.007l4.801 2.771c.169.097.364.12.544.076a.855.855 0 0 0 .286-.104l14.576-8.415v6.983L17.386 28.87 13.13 26.41a.743.743 0 0 0-1.008.269.736.736 0 0 0 .27 1.007l4.801 2.772c.169.097.364.12.544.075a.855.855 0 0 0 .286-.103l14.576-8.415v6.702l-14.963 8.64-14.964-8.64V11.44L17.634 2.8l5.079 2.932c.4.231.902.09 1.133-.31a.828.828 0 0 0-.298-1.136l-5.446-3.144z"/>
    </g>
</svg>
